<svg xmlns="http://www.w3.org/2000/svg" viewBox="0 0 20 20"><defs><style>.cls-1{fill:#e31837;}</style></defs><title>bofa_icon_awareness2_186rgb</title><g id="ICON_OUTLINES" data-name="ICON OUTLINES"><path class="cls-1" d="M12,2A10,10,0,1,0,22,12,10.011,10.011,0,0,0,12,2Zm0,19a9,9,0,1,1,9-9A9.01,9.01,0,0,1,12,21Z" transform="translate(-2 -2)"/><path class="cls-1" d="M16.622,11.783c0-3.156-1.539-5.095-4.122-5.321V5.25h-1V6.462c-2.583.226-4.122,2.165-4.122,5.321v1.225L5.833,14.735V16.75h3.59a2.66,2.66,0,0,0,5.154,0h3.59V14.735l-1.545-1.727ZM12,17.75a1.667,1.667,0,0,1-1.518-1h3.036A1.665,1.665,0,0,1,12,17.75Zm5.167-2.633v.633H6.833v-.633l1.545-1.726V11.783C8.378,9.008,9.7,7.417,12,7.417s3.622,1.591,3.622,4.366v1.608Z" transform="translate(-2 -2)"/></g></svg>