<?xml version="1.0" encoding="UTF-8"?>
<svg width="42px" height="42px" viewBox="0 0 42 42" version="1.1" xmlns="http://www.w3.org/2000/svg" xmlns:xlink="http://www.w3.org/1999/xlink">
    <!-- Generator: Sketch 64 (93537) - https://sketch.com -->
    <title>cashpro_icon</title>
    <desc>Created with Sketch.</desc>
    <g id="Symbols" stroke="none" stroke-width="1" fill="none" fill-rule="evenodd">
        <g id="Products/full-component-stylefromPrivateBank" transform="translate(-309.000000, -205.000000)" fill="#012169">
            <g id="Products-/-icon-stack" transform="translate(176.000000, 201.000000)">
                <g id="icons/finance/cashflow" transform="translate(129.000000, 0.000000)">
                    <path d="M45.8333333,25 C45.8344028,34.711612 39.1251819,43.1357556 29.659593,45.3078592 C20.194004,47.4799628 10.4831934,42.8237842 6.25,34.0833333 L6.25,34.0833333 L6.25,41.6666667 L4.16666667,41.6666667 L4.16666667,29.1666667 L16.6666667,29.1666667 L16.6666667,31.25 L7.33333333,31.25 C10.3883525,39.8429642 19.1831573,44.9914932 28.1716182,43.4488512 C37.1600792,41.9062091 43.7349402,34.1198656 43.75,25 L43.75,25 Z M26.0958333,11.4583333 L26.0958333,15.7625 C28.8244682,15.8663009 31.0648439,17.9541857 31.3604167,20.66875 L31.3604167,20.66875 L31.3604167,21.3270833 L29.2770833,21.3270833 L29.2770833,20.66875 C29.2770833,19.09375 27.3416667,17.7625 25.0541667,17.7625 C22.7666667,17.7625 20.8333333,19.09375 20.8333333,20.66875 C20.8333333,21.3166667 20.8333333,23.0375 25.1791667,23.5770833 C29.2770833,24.09375 31.3604167,25.7708333 31.3604167,28.5645833 C31.0647344,31.2787534 28.8241263,33.365968 26.0958333,33.46875 L26.0958333,33.46875 L26.0958333,37.7854167 L24.0125,37.7854167 L24.0125,33.4791667 C21.2850099,33.375376 19.0455602,31.2884147 18.75,28.575 L18.75,28.575 L18.75,27.9166667 L20.8333333,27.9166667 L20.8333333,28.5645833 C20.8333333,30.1395833 22.7645833,31.4666667 25.0541667,31.4666667 C27.34375,31.4666667 29.2770833,30.1375 29.2770833,28.5625 C29.2770833,27.9145833 29.2770833,26.1916667 24.9208333,25.6458333 C20.8333333,25.1354167 18.75,23.4625 18.75,20.66875 C19.0454505,17.9549407 21.2846681,15.8673091 24.0125,15.7625 L24.0125,15.7625 L24.0125,11.4583333 L26.0958333,11.4583333 Z M20.340407,4.69214081 C29.805996,2.52003724 39.5168066,7.17621578 43.75,15.9166667 L43.75,15.9166667 L43.75,8.33333333 L45.8333333,8.33333333 L45.8333333,20.8333333 L33.3333333,20.8333333 L33.3333333,18.75 L42.6666667,18.75 C39.6116475,10.1570358 30.8168427,5.00850681 21.8283818,6.55114885 C12.8399208,8.09379089 6.26505979,15.8801344 6.25,25 L6.25,25 L4.16666667,25 C4.16559724,15.288388 10.8748181,6.86424438 20.340407,4.69214081 Z" id="icon"></path>
                </g>
            </g>
        </g>
    </g>
</svg>