<?xml version="1.0" encoding="UTF-8"?>
<svg width="26px" height="42px" viewBox="0 0 26 42" version="1.1" xmlns="http://www.w3.org/2000/svg" xmlns:xlink="http://www.w3.org/1999/xlink">
    <!-- Generator: Sketch 64 (93537) - https://sketch.com -->
    <title>global-digital-disbursements_icon</title>
    <desc>Created with Sketch.</desc>
    <g id="Symbols" stroke="none" stroke-width="1" fill="none" fill-rule="evenodd">
        <g id="Products/full-component-stylefromPrivateBank" transform="translate(-1099.000000, -205.000000)" fill="#012169">
            <g id="Products-/-icon-stack" transform="translate(959.000000, 201.000000)">
                <g id="icons/digital/mobile" transform="translate(128.000000, 0.000000)">
                    <path d="M33.125,4.16666667 C35.5029389,4.12954952 37.4611892,6.02625484 37.5,8.40416667 L37.5,8.40416667 L37.5,41.5895833 C37.4623174,43.9689633 35.5044241,45.8681198 33.125,45.8333333 L33.125,45.8333333 L16.875,45.8333333 C14.4970611,45.8704505 12.5388108,43.9737452 12.5,41.5958333 L12.5,41.5958333 L12.5,8.4125 C12.5365456,6.03230154 14.4947751,4.13188643 16.875,4.16666667 L16.875,4.16666667 Z M33.125,6.25 L16.875,6.25 C16.2842719,6.23262084 15.7108582,6.45074833 15.2810319,6.85634804 C14.8512056,7.26194775 14.6002157,7.82175746 14.5833333,8.4125 L14.5833333,8.4125 L14.5833333,41.5958333 C14.6012876,42.1854826 14.8528884,42.7438136 15.2827224,43.1478574 C15.7125563,43.5519013 16.2853682,43.7685183 16.875,43.75 L16.875,43.75 L33.125,43.75 C34.354393,43.786202 35.3803823,42.8189739 35.4166667,41.5895833 L35.4166667,41.5895833 L35.4166667,8.40416667 C35.3781415,7.1767343 34.3524672,6.21260045 33.125,6.25 L33.125,6.25 Z M33.3333333,8.33333333 L33.3333333,37.5 L16.6666667,37.5 L16.6666667,8.33333333 L33.3333333,8.33333333 Z M31.25,10.4166667 L18.75,10.4166667 L18.75,35.4166667 L31.25,35.4166667 L31.25,10.4166667 Z" id="icon"></path>
                </g>
            </g>
        </g>
    </g>
</svg>