<?xml version="1.0" encoding="utf-8"?>
<!-- Generator: Adobe Illustrator 22.1.0, SVG Export Plug-In . SVG Version: 6.00 Build 0)  -->
<svg version="1.1" id="Layer_1" xmlns="http://www.w3.org/2000/svg" xmlns:xlink="http://www.w3.org/1999/xlink" x="0px" y="0px"
	 width="829.9019775px" height="225.4806061px" viewBox="0 0 829.9019775 225.4806061"
	 style="enable-background:new 0 0 829.9019775 225.4806061;" xml:space="preserve">
<metadata><?xpacket begin="﻿" id="W5M0MpCehiHzreSzNTczkc9d"?>
<x:xmpmeta xmlns:x="adobe:ns:meta/" x:xmptk="Adobe XMP Core 5.6-c143 79.161356, 2017/09/07-01:11:22        ">
   <rdf:RDF xmlns:rdf="http://www.w3.org/1999/02/22-rdf-syntax-ns#">
      <rdf:Description rdf:about=""
            xmlns:lr="http://ns.adobe.com/lightroom/1.0/"
            xmlns:dc="http://purl.org/dc/elements/1.1/"
            xmlns:xmp="http://ns.adobe.com/xap/1.0/"
            xmlns:xmpMM="http://ns.adobe.com/xap/1.0/mm/"
            xmlns:stEvt="http://ns.adobe.com/xap/1.0/sType/ResourceEvent#"
            xmlns:photoshop="http://ns.adobe.com/photoshop/1.0/">
         <lr:hierarchicalSubject>
            <rdf:Bag>
               <rdf:li>Other Keywords|unified</rdf:li>
            </rdf:Bag>
         </lr:hierarchicalSubject>
         <dc:subject>
            <rdf:Bag>
               <rdf:li>unified</rdf:li>
            </rdf:Bag>
         </dc:subject>
         <xmp:MetadataDate>2019-10-30T11:43:04-04:00</xmp:MetadataDate>
         <xmpMM:InstanceID>xmp.iid:cab7b989-856b-44b8-bafd-17e9b4c2d990</xmpMM:InstanceID>
         <xmpMM:DocumentID>xmp.did:dfda8932-5a8c-4edd-abc0-582f854ba578</xmpMM:DocumentID>
         <xmpMM:OriginalDocumentID>xmp.did:dfda8932-5a8c-4edd-abc0-582f854ba578</xmpMM:OriginalDocumentID>
         <xmpMM:History>
            <rdf:Seq>
               <rdf:li>
                  <rdf:Description>
                     <stEvt:action>saved</stEvt:action>
                     <stEvt:instanceID>xmp.iid:dfda8932-5a8c-4edd-abc0-582f854ba578</stEvt:instanceID>
                     <stEvt:when>2019-04-08T08:30:21-04:00</stEvt:when>
                     <stEvt:softwareAgent>Adobe Bridge CC 2018 (Macintosh)</stEvt:softwareAgent>
                     <stEvt:changed>/metadata</stEvt:changed>
                  </rdf:Description>
               </rdf:li>
               <rdf:li>
                  <rdf:Description>
                     <stEvt:action>saved</stEvt:action>
                     <stEvt:instanceID>xmp.iid:cab7b989-856b-44b8-bafd-17e9b4c2d990</stEvt:instanceID>
                     <stEvt:when>2019-10-30T11:43:04-04:00</stEvt:when>
                     <stEvt:softwareAgent>Adobe Bridge CC 2018 (Macintosh)</stEvt:softwareAgent>
                     <stEvt:changed>/metadata</stEvt:changed>
                  </rdf:Description>
               </rdf:li>
            </rdf:Seq>
         </xmpMM:History>
         <photoshop:Headline>Bank of America Preferred Rewards For Business</photoshop:Headline>
      </rdf:Description>
   </rdf:RDF>
</x:xmpmeta>
                                                                                                    
                                                                                                    
                                                                                                    
                                                                                                    
                                                                                                    
                                                                                                    
                                                                                                    
                                                                                                    
                                                                                                    
                                                                                                    
                                                                                                    
                                                                                                    
                                                                                                    
                                                            
<?xpacket end="w"?></metadata>
<g>
	<g>
		<g>
			<path d="M0,224.982605v-37.8789978h22.8925991v3.5937958H4.7012v12.8300018h15.0409985v3.5391998H4.7012v17.9160004H0z"/>
			<path d="M36.3359985,225.4257965c-8.8477993,0-11.6133995-6.5253906-11.6133995-13.826004
				c0-7.1875916,3.3183994-14.2109985,12.1660004-14.2109985c9.0137978,0,11.7228012,7.023407,11.7228012,14.1016083
				C48.6114006,218.4024048,45.7910004,225.4257965,36.3359985,225.4257965z M36.8885994,200.8731995
				c-5.9726009,0-7.4647999,5.6405945-7.4647999,10.726593c0,5.3652039,1.1054001,10.3418121,7.4647999,10.3418121
				c5.8614006,0,7.0215988-5.4748077,7.0215988-10.3418121C43.9101982,206.7891998,42.8593979,200.8731995,36.8885994,200.8731995z"
				/>
			<path d="M59.1503983,202.8634033c0.0545998,0,0.0545998,0,0.1114006,0.0545959
				c2.4315987-3.8710022,6.6346016-5.5292053,10.1738014-5.5292053v4.3692017
				c-2.8204041,0.0546112-6.9122009,0.8280029-10.1192017,4.8104095v18.4141998h-4.5898018v-26.9864044h4.2578011
				L59.1503983,202.8634033z"/>
			<path d="M89.2929993,187.1036072h13.6034012c7.4101944,0,11.1153946,4.0371857,11.1153946,9.6777954
				c0,3.0955963-1.2735977,6.3593903-5.1993942,8.3495941c4.976593,1.5487976,6.25,6.5254059,6.25,9.5115967
				c0,6.2481995-4.9764023,10.3400116-10.6738052,10.3400116H89.2929993V187.1036072z M101.8455963,190.697403h-7.9081955
				v12.8300018h7.9081955c4.8106003,0,7.465004-2.488205,7.465004-6.3594055
				C109.3106003,193.4082031,107.0995941,190.697403,101.8455963,190.697403z M102.8417969,207.0666046h-8.9043961v14.3221893
				h8.9043961c5.4746017,0,7.5742035-3.3183899,7.5742035-7.1893921
				C110.4160004,210.4396057,107.9277954,207.0666046,102.8417969,207.0666046z"/>
			<path d="M121.7245941,216.8536072v-18.8574066h4.4785995v17.7519989c0,3.7597961,0.4432068,6.0272064,4.6464005,6.0272064
				c2.0449982,0,5.2519989-1.1054077,7.8516083-3.4276123v-20.351593H143.125v26.9864044h-4.2577972l-0.1660004-3.1524048
				l-0.1114044-0.1094055c-3.5389862,3.1504059-7.1874084,3.7598114-9.0684052,3.7598114
				C122.1679993,225.4806061,121.7245941,220.8359985,121.7245941,216.8536072z"/>
			<path d="M149.6385956,220.226593c3.4297943,1.5488129,6.4160004,1.8242035,8.3495941,1.8242035
				c3.4298096,0,6.1388092-1.0507965,6.1388092-4.3123932c0-2.875-2.7638092-3.8712006-5.8066101-4.9217987
				c-4.6993866-1.6584015-9.1231995-2.875-9.1231995-7.8516083c0-5.1992035,4.3692017-7.5762024,9.7872009-7.5762024
				c2.2676086,0,5.6952057,0.4980011,8.0742035,1.9356079l-1.3827972,3.1521912
				c-2.7655945-1.1053925-4.8672028-1.4373932-6.7462006-1.4373932c-2.8202057,0-5.4745941,0.9940033-5.4745941,3.9804077
				c0,2.3221893,3.5391998,3.3729858,5.75,4.0917969c4.5351868,1.4375916,9.2910004,2.8769989,9.2910004,8.5721893
				c0,5.4179993-4.4784088,7.7422028-10.6717987,7.7422028c-3.2090149,0-7.1893921-0.7205963-9.6230011-2.1013947
				L149.6385956,220.226593z"/>
			<path d="M176.5332031,193.8497925c-1.546814,0-2.9296112-1.3829956-2.9296112-2.9317932
				c0-1.6582031,1.3827972-2.9844055,2.9296112-2.9844055c1.6601868,0,3.0429993,1.3262024,3.0429993,2.9844055
				C179.5762024,192.4667969,178.1933899,193.8497925,176.5332031,193.8497925z M174.2675934,224.982605v-26.9864044h4.4784088
				v23.9454041v3.0410004H174.2675934z"/>
			<path d="M203.6815948,224.982605v-17.8068085c0-3.7595978-0.4434052-6.0820007-4.7012024-6.0820007
				c-2.5429993,0-5.9160004,1.3282013-8.2381897,2.6544037v21.2344055h-4.535202v-26.9864044h4.4238129l0.0547791,2.3242035
				l0.1660004,0.1093903c3.0429993-1.9355927,6.802597-3.0410004,9.4022064-3.0410004
				c7.3535919,0,7.9064026,4.6444092,7.9064026,8.6816101v18.9122009H203.6815948z"/>
			<path d="M236.7869873,210.2736053v2.156189h-18.0819855c-0.0546112,5.0312042,1.6601868,9.5664062,7.6875916,9.5664062
				c3.1504059,0,5.5839996-0.6640015,8.625-1.9356079l1.1074066,2.875
				c-3.2070007,1.7148132-6.4708099,2.4902039-10.0644073,2.4902039c-9.6231995,0-12-6.3591919-12-13.8807983
				c0-4.8105927,1.6582184-14.1562042,11.8339996-14.1562042
				C236.6777954,197.3887939,236.7869873,206.9552002,236.7869873,210.2736053z M218.761795,209.5h13.767395
				c0-5.1992035-1.5467987-8.7928009-6.5253906-8.7928009C220.8065948,200.7071991,219.0917969,204.910202,218.761795,209.5z"/>
			<path d="M242.6093903,220.226593c3.4295959,1.5488129,6.4160004,1.8242035,8.3516083,1.8242035
				c3.427597,0,6.1365967-1.0507965,6.1365967-4.3123932c0-2.875-2.7635956-3.8712006-5.8065948-4.9217987
				c-4.6992035-1.6584015-9.1230011-2.875-9.1230011-7.8516083c0-5.1992035,4.3671875-7.5762024,9.7869873-7.5762024
				c2.2676086,0,5.6954041,0.4980011,8.0742188,1.9356079l-1.3828125,3.1521912
				c-2.7655792-1.1053925-4.8672028-1.4373932-6.7460022-1.4373932c-2.8204041,0-5.4745941,0.9940033-5.4745941,3.9804077
				c0,2.3221893,3.5390167,3.3729858,5.75,4.0917969c4.535202,1.4375916,9.2910004,2.8769989,9.2910004,8.5721893
				c0,5.4179993-4.4786072,7.7422028-10.6717987,7.7422028c-3.2089996,0-7.1896057-0.7205963-9.6231995-2.1013947
				L242.6093903,220.226593z"/>
			<path d="M266.7869873,220.226593c3.4298096,1.5488129,6.4161987,1.8242035,8.349823,1.8242035
				c3.4295959,0,6.1385803-1.0507965,6.1385803-4.3123932c0-2.875-2.7636108-3.8712006-5.8065796-4.9217987
				c-4.6992188-1.6584015-9.12323-2.875-9.12323-7.8516083c0-5.1992035,4.3692322-7.5762024,9.7872314-7.5762024
				c2.2675781,0,5.6953735,0.4980011,8.0741882,1.9356079l-1.3828125,3.1521912
				c-2.7655945-1.1053925-4.8671875-1.4373932-6.7460022-1.4373932c-2.8204041,0-5.4745789,0.9940033-5.4745789,3.9804077
				c0,2.3221893,3.5389709,3.3729858,5.75,4.0917969c4.5349731,1.4375916,9.2909851,2.8769989,9.2909851,8.5721893
				c0,5.4179993-4.4786072,7.7422028-10.6719971,7.7422028c-3.2090149,0-7.1893921-0.7205963-9.6230164-2.1013947
				L266.7869873,220.226593z"/>
		</g>
	</g>
	<g>
		<g>
			<g>
				<path d="M486.8973999,112.5189972l16.7597961,33.4082031h-10.4335938l-15.7608032-32.2990036h-14.8730164v32.2990036h-9.4346008
					V69.8977966h25.75c16.0948181,0,23.4200134,9.6562042,23.4200134,21.4218063
					C502.3251953,100.7531967,496.8865967,109.9662018,486.8973999,112.5189972z M477.6846008,106.6362
					c8.5467834,0,14.8729858-4.1075974,14.8729858-14.9843979c0-9.767601-6.4375916-14.6503983-15.0947876-14.6503983h-14.8730164
					V106.6362H477.6846008z"/>
				<path d="M556.3699951,116.4036026v4.3281937h-36.2938232c-0.1113892,10.0996094,3.3290405,19.2012024,15.4276123,19.2012024
					c6.3261719,0,11.210022-1.3320007,17.3145752-3.8847961l2.2196045,5.7713928
					c-6.4373779,3.4416046-12.9853516,4.9962006-20.2001953,4.9962006c-19.3123779,0-24.0857849-12.7655945-24.0857849-27.8593979
					c0-9.6561966,3.3299866-28.4140015,23.7528381-28.4140015
					C556.1483765,90.5423965,556.3699951,109.7435989,556.3699951,116.4036026z M520.1864014,114.848999h27.6377563
					c0-10.4336014-3.1083984-17.6483994-13.0975952-17.6483994C524.2937622,97.2005997,520.852417,105.6362,520.1864014,114.848999z
					"/>
				<path d="M617.9351807,136.9367981l3.9960327-16.5369949l7.7695923-28.6368027h9.1015625l-16.093811,54.1641998h-9.8789673
					l-7.8807983-25.0839996l-5.4373779-19.2012024h-0.5548096l-4.9960327,19.2012024l-7.2130127,25.0839996h-9.8787231
					L560.996582,91.7630005h9.1005859l7.6582031,27.9708023l4.218811,17.2029953h0.5548096l4.5505981-17.8689957
					l7.7695923-27.3048019h8.7676392l8.9921875,28.5253983l4.6601562,16.6483994H617.9351807z"/>
				<path d="M686.4859619,108.634201v37.2929993h-7.9901733l-0.5568237-5.8827972c0,0-0.109375-0.1114044-0.2205811-0.1114044
					c-8.3242188,6.660202-15.3164062,6.7714081-18.7578125,6.7714081c-12.5429688,0-15.9823608-8.6582031-15.9823608-15.0956116
					c0-10.2109985,7.7693481-15.8711929,18.4237671-16.4257965l16.3164062-0.8885956v-3.8848038
					c0-8.8789978-2.3320312-12.7638016-11.6544189-12.7638016c-5.4393921,0-11.6541748,1.3321991-17.0935669,3.107399
					c-0.5548096-1.9979935-1.109436-3.9959946-1.7753906-5.9939957c6.2147827-2.6641998,14.2069702-4.2168045,20.8671875-4.2168045
					C679.7163696,90.5423965,686.4859619,95.313797,686.4859619,108.634201z M663.6225586,120.9543991
					c-7.3261719,0.4433975-10.9881592,3.9942017-10.9881592,9.767601c0,6.4376068,3.1073608,9.6562042,10.0996094,9.6562042
					c4.6619873,0,9.8787842-2.4432068,14.984375-6.8827972v-13.4296036L663.6225586,120.9543991z"/>
				<path d="M708.3217773,101.5306015c0.1113892,0,0.1113892,0,0.2208252,0.1113968
					c4.8847656-7.7695999,13.3201904-11.0996017,20.4237671-11.0996017v8.767601
					c-5.6602173,0.1112061-13.875,1.6660004-20.3123779,9.6562042v36.9609985h-9.2130127V91.7630005h8.546814
					L708.3217773,101.5306015z"/>
				<path d="M770.9819946,94.5383987V67.0112h9.1015625v78.9160004h-8.2127686l-0.4434204-5.3282013
					c-0.1113892,0-0.1113892-0.1114044-0.2227783-0.1114044c-4.9940186,3.9962006-11.6542358,6.2168121-17.3143921,6.2168121
					c-15.4276123,0-20.2012329-12.3202057-20.2012329-26.8612061c0-16.5372009,5.8828125-29.3008041,21.8654175-29.3008041
					C759.6618042,90.5423965,765.8765869,91.4290009,770.9819946,94.5383987z M770.9819946,101.5306015
					c-3.1074219-1.8866043-8.9902344-3.8848038-13.8729858-3.8848038c-7.546814,0-14.0958252,4.9942017-14.0958252,22.197403
					c0,15.3182068,5.5490112,20.089798,13.6524048,20.089798c4.328186,0,11.0975952-2.9962006,14.3164062-5.9922028V101.5306015z"/>
				<path d="M792.0543823,136.3822021c6.8807983,3.1073914,12.875,3.6622009,16.7595825,3.6622009
					c6.8810425,0,12.3204346-2.1094055,12.3204346-8.6564026c0-5.7733994-5.5508423-7.7694016-11.6544189-9.8787994
					c-9.4354248-3.3302002-18.3143921-5.7715988-18.3143921-15.7618027c0-10.4336014,8.7695923-15.2050018,19.6466064-15.2050018
					c4.5505981,0,11.4315796,0.9980011,16.2049561,3.8848038l-2.7753906,6.3259964
					c-5.5487671-2.2205963-9.7675781-2.8865967-13.5409546-2.8865967c-5.6602173,0-10.9882202,1.9980011-10.9882202,7.9922028
					c0,4.6619949,7.1033936,6.7714005,11.5427856,8.2127991c9.1016235,2.886795,18.6466064,5.7715988,18.6466064,17.2051926
					c0,10.8768005-8.9901733,15.5390015-21.4219971,15.5390015c-6.4373779,0-14.4276123-1.4433899-19.3123779-4.2187958
					L792.0543823,136.3822021z"/>
			</g>
			<g>
				<path d="M25.8611984,114.7432022H9.4345999l0.1112003,31.188591H0V69.9013977h24.8631992
					c13.8739986,0,23.6406002,7.5480042,23.6406002,22.0880051
					C48.5037994,101.2022018,43.3983994,114.7432022,25.8611984,114.7432022z M9.4345999,77.1164017v30.5233994h15.0955992
					c7.1035995,0,14.3174-3.4413986,14.3174-15.3173981c0-10.4336014-6.4374008-15.2060013-14.7617989-15.2060013H9.4345999z"/>
				<path d="M67.5194016,101.535202c0.1114044,0,0.1114044,0,0.2227936,0.1103973
					c4.8838043-7.7695999,13.3192062-11.0986023,20.4228058-11.0986023v8.767601
					c-5.6612015,0.1111984-13.8740005,1.6650009-20.3125992,9.6562042v36.9609909h-9.2118034V91.767601h8.5468025
					L67.5194016,101.535202z"/>
				<path d="M138.3183899,116.407402v4.3289948h-36.2949905c-0.1114044,10.1006088,3.3289948,19.2022018,15.4277954,19.2022018
					c6.326004,0,11.2108078-1.3320007,17.3143997-3.8847961l2.2205963,5.7713928
					C130.5488129,145.2657928,124,146.819397,116.7851944,146.819397c-19.3125992,0-24.0859985-12.7635956-24.0859985-27.8583984
					c0-9.657196,3.3300018-28.4140015,23.7519989-28.4140015
					C138.0955963,90.5469971,138.3183899,109.7481995,138.3183899,116.407402z M102.1337967,114.8535995h27.6375961
					c0-10.4326019-3.107399-17.6473999-13.0975952-17.6473999
					C106.2411957,97.2061996,102.7997971,105.6416016,102.1337967,114.8535995z"/>
				<path d="M152.5133972,98.4268036h-7.5487976v-4.8838043l7.6602173-1.9980011v-8.8787994
					c0-10.7666016,5.9921722-16.6485977,17.4257812-16.6485977c3.1073914,0,7.4353943,0.3321991,11.3202057,1.3311996
					l-1.2206116,6.5487976c-2.6641998-0.444397-5.8827972-0.7763977-8.2129974-0.7763977
					c-6.8827972,0-10.5447998,2.4413986-10.5447998,9.4336014v9.2127991h15.8710022v6.6592026H161.392395l-0.1114044,47.5049896
					h-8.7675934V98.4268036z"/>
				<path d="M227.6501923,116.407402v4.3289948h-36.2949982c-0.1112061,10.1006088,3.3302002,19.2022018,15.4277954,19.2022018
					c6.3280029,0,11.2109985-1.3320007,17.3164062-3.8847961l2.2187958,5.7713928
					c-6.4375916,3.4405975-12.9864044,4.9942017-20.2012024,4.9942017c-19.3125916,0-24.0839996-12.7635956-24.0839996-27.8583984
					c0-9.657196,3.3300018-28.4140015,23.7519989-28.4140015C227.427597,90.5469971,227.6501923,109.7481995,227.6501923,116.407402
					z M191.4665985,114.8535995h27.6365967c0-10.4326019-3.1074066-17.6473999-13.0955963-17.6473999
					C195.5739899,97.2061996,192.1325989,105.6416016,191.4665985,114.8535995z"/>
				<path d="M247.6871948,101.535202c0.1114044,0,0.1114044,0,0.2207947,0.1103973
					c4.8848267-7.7695999,13.3201904-11.0986023,20.4237976-11.0986023v8.767601
					c-5.6601868,0.1111984-13.8749847,1.6650009-20.3125916,9.6562042v36.9609909h-9.2127991V91.767601h8.5467987
					L247.6871948,101.535202z"/>
				<path d="M285.9221802,101.535202c0.1114197,0,0.1114197,0,0.2208252,0.1103973
					c4.8847961-7.7695999,13.3201904-11.0986023,20.4237976-11.0986023v8.767601
					c-5.6602173,0.1111984-13.875,1.6650009-20.3124084,9.6562042v36.9609909h-9.2130127V91.767601h8.546814L285.9221802,101.535202
					z"/>
				<path d="M356.7191772,116.407402v4.3289948h-36.2949829c-0.1113892,10.1006088,3.3302002,19.2022018,15.4277954,19.2022018
					c6.3280029,0,11.2108154-1.3320007,17.3164062-3.8847961l2.2187805,5.7713928
					c-6.4375916,3.4405975-12.9863586,4.9942017-20.2011719,4.9942017c-19.3126221,0-24.0840149-12.7635956-24.0840149-27.8583984
					c0-9.657196,3.3300171-28.4140015,23.7520142-28.4140015
					C356.4963989,90.5469971,356.7191772,109.7481995,356.7191772,116.407402z M320.5355835,114.8535995h27.6365967
					c0-10.4326019-3.1073608-17.6473999-13.0955811-17.6473999
					C324.6430054,97.2061996,321.2015991,105.6416016,320.5355835,114.8535995z"/>
				<path d="M402.8831787,94.5419998V67.0158005h9.1016235v78.9159927h-8.2130127l-0.4432068-5.328186
					c-0.1113892,0-0.1113892-0.1104126-0.2227783-0.1104126c-4.9940186,3.9952087-11.6542053,6.2158051-17.3144226,6.2158051
					c-15.4277954,0-20.2012024-12.3202057-20.2012024-26.860199c0-16.5382004,5.8828125-29.3018036,21.8652039-29.3018036
					C391.5628052,90.5469971,397.7778015,91.4346008,402.8831787,94.5419998z M402.8831787,101.535202
					c-3.1073914-1.8876038-8.9902039-3.8848038-13.8729858-3.8848038c-7.5469971,0-14.0957947,4.9942017-14.0957947,22.1984024
					c0,15.3164062,5.5487976,20.089798,13.6524048,20.089798c4.328186,0,11.0975952-2.996994,14.3163757-5.9942017V101.535202z"/>
			</g>
		</g>
		<g>
			<path d="M17.7537994,13.9813995c3.3292007,1.2208004,4.6602001,4.3271999,4.6602001,6.8241997
				c0,4.8262005-4.2168007,7.9336014-9.0985994,7.9336014H0V0.4444h12.0945997c6.2139997,0,9.3203993,3.1064,9.3203993,7.3788004
				c0,1.7754002-0.8319988,4.3828001-3.6611996,5.9365997V13.9813995z M4.4941998,3.9951999v8.4326h7.4891996
				c3.1074104,0,4.9383993-1.6641998,4.9383993-4.3271999c0-2.5528002-1.8309889-4.1054001-4.9383993-4.1054001H4.4941998z
				 M4.4941998,15.8123999v9.3760004h7.9335995c3.7166004,0,5.4363995-1.9969997,5.4363995-4.6044006
				c0-2.5527992-1.8299999-4.7715998-5.4363995-4.7715998H4.4941998z"/>
			<path d="M47.9949989,28.7392006l-2.7187996-7.767601H34.0135994c-0.5545998,1.6093998-1.0537987,2.7187996-2.7744007,7.767601
				h-4.6602001L37.0653992,0.4444h5.3261986l10.4295998,28.2947998H47.9949989z M40.7263985,7.546
				c-0.2771988-0.6662002-0.8320007-2.6083999-1.0535889-3.2736001h-0.055809
				C39.3953972,4.9376001,38.7849998,6.8797998,38.5077972,7.546c-1.3321991,3.7165999-2.1083984,6.6013999-3.4403992,10.3192005
				h9.2098007C42.8905983,14.1473999,42.1142006,11.3184004,40.7263985,7.546z"/>
			<path d="M62.5915985,7.1016002c0,6.1581998,0.0547981,12.0389996,0.1660004,21.6375999h-4.3827896V0.499h4.6045876
				l11.9286003,17.0887985l3.1622009,4.6602001h0.055603V0.499h4.3271942l-0.0547943,28.2402h-4.1610031L65.0877991,10.1534004
				C64.2557983,8.9326,63.589798,8.1006002,62.7575989,6.8797998L62.5915985,7.1016002z"/>
			<path d="M95.5515976,28.7392006h-4.4942017V0.4444h4.4942017v12.0945997L107.9791946,0.4444h5.3262024L101.3209991,11.8174
				l12.2618103,16.9218006h-5.1602097L98.3249969,14.6473999l-2.7733994,2.6632004V28.7392006z"/>
			<path d="M148.5943909,29.0722008c-9.8183899,0-13.5369873-5.6034012-13.5369873-14.2588005
				C135.0574036,6.9912,138.5533905,0,148.5943909,0c10.0429993,0,12.9844208,7.046,12.9844208,14.7021999
				C161.5788116,22.9139996,157.2505951,29.0722008,148.5943909,29.0722008z M148.5943909,3.2734001
				c-7.156189,0-8.9315796,5.7147999-8.9315796,11.6513996c0,7.1015997,2.6640015,10.9296007,8.9315796,10.9296007
				c5.714798,0,8.3789978-4.993,8.3789978-11.0410004C156.9733887,9.4874001,155.6411896,3.2734001,148.5943909,3.2734001z"/>
			<path d="M169.6255951,28.7392006V0.4444h19.4199982v3.5507998h-14.9805908V12.0948h11.8729858v3.4404001h-11.8729858v13.2040005
				H169.6255951z"/>
			<path d="M229.4420013,28.7392006l-2.718811-7.767601h-11.2635956c-0.5547791,1.6093998-1.0527802,2.7187996-2.7736053,7.767601
				h-4.6599884L218.5121918,0.4444h5.3262024l10.4295959,28.2947998H229.4420013z M222.1743927,7.546
				c-0.2774048-0.6662002-0.8320007-2.6083999-1.0547943-3.2736001h-0.0546112
				C220.842392,4.9376001,220.2309875,6.8797998,219.953598,7.546c-1.3300018,3.7165999-2.1074066,6.6013999-3.4394073,10.3192005
				h9.2109985C224.3383942,14.1473999,223.5609894,11.3184004,222.1743927,7.546z"/>
			<path d="M255.0219879,23.3574009L265.1195984,0.499h4.9921875v28.2402h-4.3262024V8.5995998h-0.2225952l-9.0429993,20.1396008
				h-3.2733917l-9.0996094-20.2509995h-0.2225952v20.2509995h-4.3262024V0.499h5.0487976l10.0976105,22.8584003H255.0219879z"/>
			<path d="M278.6058044,28.7392006V0.4444h19.5293884v3.5507998h-14.9786072v8.1552h12.8164062v3.3848h-12.8164062v9.6532001
				h15.7012024v3.5508003H278.6058044z"/>
			<path d="M320.6116028,16.4228001l6.8241882,12.3164005h-4.7167969l-6.3788147-11.8174h-6.2695923v11.8174h-4.5507812V0.4444
				h11.375c6.7129822,0,9.9297791,3.4949999,9.9297791,8.0995998
				C326.824585,11.8730001,324.662384,15.4238005,320.6116028,16.4228001z M316.3401794,13.7598
				c3.4394226,0,5.9356079-1.2763996,5.9356079-5.1046c0-3.4949999-2.6622009-4.9373999-6.0469666-4.9373999h-6.2148438V13.7598
				H316.3401794z"/>
			<path d="M334.8733826,28.7392006V0.4444h4.4940186v26.0691986v2.2256012H334.8733826z"/>
			<path d="M369.4415894,27.6298008c-2.3299866,0.8877983-6.1582031,1.3867989-9.0996094,1.3867989
				c-9.9861755,0-13.4823914-5.7695999-13.4823914-14.2031994C346.8595886,8.7110004,349.5783997,0,360.6193848,0
				c3.4960022,0,6.1582031,0.5548,8.0996094,1.2208l-0.7753906,3.329c-3.1074219-0.832-5.6602173-0.9433999-7.2127991-0.9433999
				c-6.4356079,0-9.265625,4.2168002-9.265625,11.2070007c0,6.4356003,2.1074219,10.7080002,9.5428162,10.7080002
				c1.6641846,0,4.9942017-0.3330002,7.5449829-1.0545998L369.4415894,27.6298008z"/>
			<path d="M394.1895752,28.7392006l-2.7187805-7.767601H380.209198c-0.5566101,1.6093998-1.0545959,2.7187996-2.7754211,7.767601
				h-4.6601868L383.2599792,0.4444h5.3262024l10.4295959,28.2947998H394.1895752z M386.9219971,7.546
				c-0.2771912-0.6662002-0.8320007-2.6083999-1.0545959-3.2736001h-0.0548096
				c-0.2225952,0.6652002-0.8337708,2.6073999-1.1112061,3.2736001c-1.3302002,3.7165999-2.1073914,6.6013999-3.4393921,10.3192005
				h9.2108154C389.084198,14.1473999,388.3088074,11.3184004,386.9219971,7.546z"/>
		</g>
	</g>
</g>
</svg>
