<?xml version="1.0" encoding="utf-8"?>
<svg version="1.1" id="Layer_1" x="0" y="0" viewBox="29.200000762939453 49.70000076293945 71.69999694824219 29.299999237060547" width="130" height="82" xmlns="http://www.w3.org/2000/svg">
  <style>
        .st3{fill:#6d1ed4}
    </style>
  <g id="XMLID_21_">
    <path id="XMLID_30_" class="st3" d="M71.5 74.3c-.4-.8-.7-1.6-.8-2.6 0-.1-.1-.3-.2-.3-.1-.1-.2-.1-.3-.1h-.1c-.2 0-.4.1-.6.1-.6 0-1-.1-1-1.3V52.2c0-.3-.2-.5-.5-.5h-3.3c-.3 0-.5.2-.5.5v18.1c0 1.4.1 2.4.7 3.3.8 1 2.3 1.7 3.7 1.7h.2c.8 0 1.7-.1 2.4-.3.1 0 .3-.2.3-.3v-.4z"/>
    <path id="XMLID_29_" class="st3" d="M80.5 73.7c-.6-.9-.8-1.1-1.2-2-.1-.1-.1-.3-.2-.3-.1-.1-.2-.1-.3-.1h-.1c-.2 0-.4.1-.6.1-.6 0-1-.1-1-1.3V52.4c0-.3-.2-.5-.5-.5h-3.3c-.3 0-.5.2-.5.5v18.1c0 1.4.1 2.4.7 3.3.8 1 2.3 1.7 3.7 1.7h.2c.8 0 1.7-.1 2.4-.3.1 0 .6-.3.8-.4.3-.6 0-1-.1-1.1z"/>
    <path id="XMLID_26_" class="st3" d="M54 57.7c-2.5 0-4.7.9-6.2 2.6-1.5 1.6-2.3 3.8-2.3 6.3s.8 4.7 2.3 6.2c1.6 1.6 3.8 2.5 6.5 2.5 2.9 0 5.4-1 7.3-3 .2-.2.2-.5 0-.6-.2-.1-1.2-.8-2.2-2.1-.1-.1-.2-.1-.3-.1-.1 0-.2.1-.3.1-1.1 1.2-2.6 1.7-4.3 1.7-2.5 0-4.1-1.2-4.4-3.5h11.7c.2 0 .4-.2.5-.4 0-.4.1-.8.1-1.2 0-2.4-.8-4.5-2.2-6-1.7-1.7-3.8-2.5-6.2-2.5zm-3.9 6.7c.3-1.9 1.8-3.1 3.9-3.1 2.1 0 3.5 1.2 3.8 3.1h-7.7z"/>
    <path id="XMLID_23_" class="st3" d="M88.7 57.7c-2.5 0-4.7.9-6.2 2.6-1.5 1.6-2.3 3.8-2.3 6.3s.8 4.7 2.3 6.2c1.6 1.6 3.8 2.5 6.5 2.5 2.9 0 5.4-1 7.3-3 .2-.2.2-.5 0-.6s-1.2-.8-2.2-2.1c-.1-.1-.2-.1-.3-.1-.1 0-.2.1-.3.1-1.1 1.2-2.6 1.7-4.3 1.7-2.5 0-4.1-1.2-4.4-3.5h11.7c.2 0 .4-.2.5-.4 0-.4.1-.8.1-1.2 0-2.4-.8-4.5-2.2-6-1.6-1.7-3.7-2.5-6.2-2.5zm-3.8 6.7c.3-1.9 1.8-3.1 3.9-3.1 2.1 0 3.5 1.2 3.8 3.1h-7.7z"/>
    <path id="XMLID_22_" class="st3" d="M46.3 74.2c0-.1 0-.1 0 0 0-.1 0-.1 0 0-.9-.9-1.5-1.9-2-3-.1-.2-.2-.3-.4-.3h-8.8l10.7-13.7c.2-.1.2-.2.2-.3v-2.7c0-.3-.2-.5-.5-.5h-5.8v-3.8c0-.1-.1-.2-.2-.2H36c-.1 0-.2.1-.2.2v3.8h-5.6c-.3 0-.5.2-.5.5v3.1c0 .3.2.5.5.5H40L29.3 71.4c-.1.1-.1.2-.1.3v2.8c0 .3.2.5.5.5h6.1v3.8c0 .1.1.2.2.2h3.6c.1 0 .2-.1.2-.2V75H46c.2 0 .4-.1.4-.3.1-.2.1-.4-.1-.5z"/>
  </g>
  <path class="st3" d="M96.9 55.7c0-.3.1-.5.2-.8.1-.2.2-.4.4-.6.2-.2.4-.3.6-.4.2-.1.5-.1.8-.1.3 0 .5 0 .8.1.2.1.4.2.6.4.2.2.3.4.4.6.1.2.2.5.2.8 0 .3-.1.5-.2.8-.1.2-.2.4-.4.6s-.4.3-.6.4c-.2.1-.5.1-.8.1-.3 0-.5 0-.8-.1-.2-.1-.4-.2-.6-.4-.2-.2-.3-.4-.4-.6-.2-.2-.2-.5-.2-.8zm.3 0c0 .2 0 .5.1.7.1.2.2.4.4.5.2.1.3.3.5.4.2.1.4.1.6.1.2 0 .4 0 .6-.1.2-.1.4-.2.5-.4.2-.2.3-.3.4-.5.1-.2.1-.4.1-.7 0-.2 0-.5-.1-.7-.1-.2-.2-.4-.4-.5-.2-.1-.3-.3-.5-.3-.2-.1-.4-.1-.6-.1-.2 0-.4 0-.6.1-.2.1-.4.2-.5.4-.2.1-.3.3-.4.5 0 .2-.1.4-.1.6zm.9-1.1h.9c.3 0 .5.1.6.2.1.1.2.3.2.5s-.1.4-.2.4c-.1.1-.3.2-.4.2l.7 1h-.3l-.6-1h-.4v1h-.3v-2.3zm.4 1h.8c.1 0 .1-.1.1-.1s.1-.1.1-.2v-.2l-.1-.1h-.9v.6z"/>
</svg>