<svg xmlns="http://www.w3.org/2000/svg" viewBox="0 0 80 80">
    <style>
        .st5{fill:#e3173e}
    </style>
    <path fill="none" d="M7.7 0h36v36h-36z" id="ICON_BUFFER"/>
    <g id="ICON_ART">
        <path class="st5" d="M13.1 48.4h13.4V51H13.1zm9.5-10.8c1.9 0 3.5-1.6 3.5-3.5v-9c0-1.9-1.6-3.5-3.5-3.5h-9c-1.9 0-3.5 1.6-3.5 3.5v9c0 1.9 1.6 3.5 3.5 3.5h9zm-9.9-3.5v-9c0-.5.4-1 1-1h9c.5 0 1 .4 1 1v9c0 .5-.4 1-1 1h-9c-.6-.1-1-.5-1-1z"/>
        <path class="st5" d="M71.8 11.5H8c-4.4 0-8 3.6-8 8v36.9c0 4.4 3.6 8 8 8h63.8c4.4 0 8-3.6 8-8V19.5c0-4.4-3.6-8-8-8zm5.4 44.9c0 3-2.4 5.4-5.4 5.4H8c-3 0-5.4-2.4-5.4-5.4V19.5c0-3 2.4-5.4 5.4-5.4h63.8c3 0 5.4 2.4 5.4 5.4v36.9z"/>
        <path class="st5" d="M33.2 48.4h13.4V51H33.2zm20.2 0h13.4V51H53.4z"/>
    </g>
</svg>
